<?xml version="1.0" encoding="utf-8"?>
<!-- Generator: Adobe Illustrator 23.1.1, SVG Export Plug-In . SVG Version: 6.00 Build 0)  -->
<svg version="1.1" id="Layer_1" xmlns="http://www.w3.org/2000/svg" xmlns:xlink="http://www.w3.org/1999/xlink" x="0px" y="0px"
	 viewBox="0 0 350.5 178.1" style="enable-background:new 0 0 350.5 178.1;" xml:space="preserve">
<style type="text/css">
	.st0{fill:none;stroke:#000000;stroke-miterlimit:10;}
</style>
<g>
	<path class="st0" d="M0.1,118.1C0.1,103.5,0.2,89,0,74.4c-0.1-9.4,7.7-17.2,16.9-17c11.6,0.3,23.2,0,34.8,0.1
		c17.2,0.1,31.9,6.1,43.9,18.3c8.7,8.8,14.1,19.4,16.1,31.7c2.8,17.9-1.3,34.1-12.6,48.3c-9.3,11.5-21.3,18.8-35.9,21.4
		c-4.2,0.8-8.5,1-12.7,1.1c-11.2,0.1-22.5,0.1-33.7,0.1c-9.7,0-16.7-7-16.7-16.7C0.1,147.1,0.1,132.6,0.1,118.1z M32.6,117.9
		c0,7.6,0,15.2,0,22.7c0,3.5,2,5.6,5.5,5.6c3.7,0,7.5,0.1,11.2,0c2.7-0.1,5.5,0.1,8.2-0.5c15.7-3.3,25.4-18.7,21.8-34.4
		c-2.8-12.4-14.4-21.7-27.1-21.7c-4.6,0-9.3,0-13.9,0c-3.7,0-5.7,2-5.7,5.8C32.6,102.9,32.6,110.4,32.6,117.9z"/>
	<path class="st0" d="M118.7,117.6c0.2-28.3,20.1-53,47.8-58.7c18.5-3.8,35.5-0.2,50.6,11.4c3.8,2.9,7.5,6.1,8.9,11
		c3,10.6-4.5,21.6-16.1,21c-3.9-0.2-7.2-1.8-10.1-4.5c-7.9-7.2-17.1-10.3-27.6-7.3c-10.5,2.9-17.4,10-20,20.6
		c-3.9,15.7,6.1,31.4,21.8,34.6c9.9,2,18.4-1.2,25.5-8.1c5.5-5.3,13.9-6,20.1-1.6c8.4,5.9,9.5,18.2,2.1,25.4
		c-9.3,9-20.4,14.5-33.3,16.3c-18.1,2.5-34.2-2.1-48.1-13.8c-11.5-9.7-18.5-22.3-20.7-37.3C119.2,123.6,119,120.6,118.7,117.6z"/>
	<path class="st0" d="M350.5,162.2c-0.1,7.1-5.2,13.6-12.2,15.3c-7,1.7-14.5-1.6-17.7-8.1c-8.7-17.2-17.4-34.4-26.1-51.6
		c-0.4-0.7-0.7-1.4-1.1-2.1c-1.4-2.2-3.8-2.2-5.1,0.1c-1.7,3.1-3.3,6.2-4.8,9.4c-7,14.3-14.1,28.7-21,43
		c-4.9,10.2-17.6,12.9-26.1,5.5c-4.9-4.2-6.5-12.3-3.6-18.4c8.7-18,17.5-35.9,26.3-53.9c5.7-11.6,11.3-23.3,17-34.9
		c3-6.2,8.2-9.1,14.9-9.1c6.6,0.1,11.8,2.9,14.8,9.1c13.4,27.6,26.8,55.2,40.2,82.8c1.6,3.3,2.9,6.8,4.2,10.2
		C350.5,160.5,350.5,161.4,350.5,162.2z"/>
	<path class="st0" d="M168.5,0.3c0,16.7,0,33.3,0,50c-56,0-112.1,0-168.4,0c0-0.6,0-1.2,0-1.9c0-11,0-22,0-33
		c0-7.7,7.5-15.1,15.2-15.1c50.3,0,100.7,0,151,0C167,0.3,167.7,0.3,168.5,0.3z M127.9,40.9c0-7,0-13.8,0-20.6
		c2.3,5.6,4.3,11.3,6.2,16.9c1.4,4,1.4,4,5.7,3.8c0.6,0,1.4-0.6,1.6-1.2c1.1-2.8,2-5.6,3-8.4c1.3-3.8,2.7-7.7,4-11.5
		c0.1,0,0.2,0,0.4,0.1c0,7,0,13.9,0,20.9c2.4,0,4.5,0,6.6,0c0-10.7,0-21.2,0-31.9c-2.9,0-5.6,0.1-8.4,0c-1.2,0-1.7,0.3-2,1.5
		c-1.9,6-3.8,12-5.8,17.9c-0.2,0.6-0.4,1.2-0.8,2.2c-0.3-1-0.5-1.5-0.7-2c-2.1-6.1-4.1-12.1-6.2-18.2c-0.2-0.5-0.7-1.4-1.1-1.4
		c-3.1-0.1-6.2-0.1-9.4-0.1c0,10.8,0,21.3,0,31.9C123.3,40.9,125.5,40.9,127.9,40.9z M71.3,15c0-2.1,0-4,0-5.9c-8,0-16,0-23.9,0
		c0,10.7,0,21.2,0,31.8c8.2,0,16.2,0,24.3,0c0-2,0-3.8,0-5.9c-5.7,0-11.3,0-17,0c0-2.6,0-5,0-7.6c5.2,0,10.2,0,15.2,0
		c0-2,0-3.7,0-5.6c-5.1,0-10.1,0-15.1,0c0-2.3,0-4.5,0-6.8C60.3,15,65.8,15,71.3,15z M111.3,41c-0.3-0.9-0.5-1.5-0.7-2.1
		c-3.2-8.4-6.3-16.9-9.5-25.3c-1.7-4.6-1.7-4.6-6.7-4.6c-0.2,0-0.4,0-0.5,0c-1.5-0.3-2.1,0.4-2.6,1.8c-3.5,9.4-7.1,18.7-10.6,28.1
		c-0.2,0.7-0.4,1.3-0.7,2.2c2.1,0,3.9-0.1,5.8,0c1.1,0.1,1.7-0.3,2-1.4c0.5-1.6,1-3.3,1.7-4.8c0.2-0.5,1-1.1,1.5-1.1
		c3.1-0.1,6.2,0,9.3-0.1c1,0,1.4,0.4,1.7,1.2c0.5,1.6,1,3.3,1.6,4.9c0.2,0.5,0.7,1.1,1.1,1.2C106.7,41,108.9,41,111.3,41z
		 M19.9,14.9c0,8.8,0,17.4,0,25.9c2.6,0,4.9,0,7.3,0c0-8.7,0-17.2,0-25.9c3.2,0,6.2,0,9.3,0c0-2.1,0-4,0-5.9c-8.8,0-17.4,0-26.1,0
		c0,2,0,3.8,0,5.9C13.6,14.9,16.5,14.9,19.9,14.9z"/>
	<path class="st0" d="M32.6,117.9c0-7.5,0-15,0-22.5c0-3.8,2-5.8,5.7-5.8c4.6,0,9.3,0,13.9,0c12.7,0,24.3,9.2,27.1,21.7
		c3.6,15.7-6.1,31.1-21.8,34.4c-2.6,0.6-5.5,0.4-8.2,0.5c-3.7,0.1-7.5,0-11.2,0c-3.5,0-5.5-2-5.5-5.6
		C32.6,133.1,32.6,125.5,32.6,117.9z"/>
	<path class="st0" d="M127.9,40.9c-2.5,0-4.6,0-6.8,0c0-10.6,0-21.2,0-31.9c3.2,0,6.3-0.1,9.4,0.1c0.4,0,0.9,0.8,1.1,1.4
		c2.1,6,4.2,12.1,6.2,18.2c0.2,0.5,0.4,1,0.7,2c0.3-1,0.6-1.6,0.8-2.2c1.9-6,3.9-11.9,5.8-17.9c0.4-1.2,0.9-1.5,2-1.5
		c2.7,0.1,5.5,0,8.4,0c0,10.7,0,21.2,0,31.9c-2.1,0-4.3,0-6.6,0c0-7,0-14,0-20.9c-0.1,0-0.2,0-0.4-0.1c-1.3,3.8-2.7,7.7-4,11.5
		c-1,2.8-1.9,5.7-3,8.4c-0.2,0.5-1.1,1.1-1.6,1.2c-4.3,0.2-4.3,0.2-5.7-3.8c-2-5.6-3.9-11.3-6.2-16.9
		C127.9,27.1,127.9,33.9,127.9,40.9z"/>
	<path class="st0" d="M71.3,15c-5.6,0-11,0-16.6,0c0,2.3,0,4.4,0,6.8c5,0,10,0,15.1,0c0,1.9,0,3.6,0,5.6c-5,0-10,0-15.2,0
		c0,2.6,0,5,0,7.6c5.7,0,11.3,0,17,0c0,2.1,0,3.9,0,5.9c-8.1,0-16.2,0-24.3,0c0-10.6,0-21.1,0-31.8c8,0,15.9,0,23.9,0
		C71.3,11,71.3,12.8,71.3,15z"/>
	<path class="st0" d="M111.3,41c-2.4,0-4.6,0.1-6.8-0.1c-0.4,0-0.9-0.7-1.1-1.2c-0.6-1.6-1.1-3.2-1.6-4.9c-0.3-0.9-0.7-1.3-1.7-1.2
		c-3.1,0.1-6.2,0-9.3,0.1c-0.5,0-1.3,0.6-1.5,1.1c-0.7,1.6-1.2,3.2-1.7,4.8c-0.3,1.1-0.9,1.4-2,1.4c-1.8-0.1-3.7,0-5.8,0
		c0.3-0.9,0.5-1.5,0.7-2.2c3.5-9.4,7.1-18.7,10.6-28.1c0.5-1.4,1.1-2.1,2.6-1.8c0.2,0,0.4,0,0.5,0c5,0,5,0,6.7,4.6
		c3.2,8.4,6.3,16.9,9.5,25.3C110.8,39.5,111,40.1,111.3,41z M91.6,28.2c2.7,0,5.2,0,7.9,0c-1.3-3.6-2.5-7.1-3.9-11.1
		C94.2,21.2,92.9,24.7,91.6,28.2z"/>
	<path class="st0" d="M19.9,14.9c-3.4,0-6.4,0-9.5,0c0-2,0-3.9,0-5.9c8.7,0,17.4,0,26.1,0c0,1.9,0,3.8,0,5.9c-3.1,0-6.1,0-9.3,0
		c0,8.7,0,17.2,0,25.9c-2.5,0-4.7,0-7.3,0C19.9,32.3,19.9,23.8,19.9,14.9z"/>
	<path class="st0" d="M91.6,28.2c1.3-3.6,2.6-7.1,4-11.1c1.4,4,2.6,7.4,3.9,11.1C96.8,28.2,94.3,28.2,91.6,28.2z"/>
</g>
</svg>
